G04 EasyPC Gerber Version 20.0.2 Build 4112 *
G04 #@! TF.Part,Single*
G04 #@! TF.FileFunction,Soldermask,Top *
%FSLAX35Y35*%
%MOIN*%
G04 #@! TA.AperFunction,ComponentPad*
%ADD21R,0.07000X0.07000*%
%ADD20C,0.07000*%
%ADD19O,0.12000X0.07000*%
%ADD28C,0.09661*%
X0Y0D02*
D02*
D19*
X83250Y20250D03*
Y30250D03*
Y40250D03*
Y50250D03*
Y60250D03*
Y70250D03*
Y80250D03*
Y90250D03*
Y100250D03*
Y110250D03*
Y120250D03*
Y130250D03*
Y140250D03*
Y150250D03*
Y160250D03*
Y170250D03*
Y180250D03*
Y190250D03*
Y200250D03*
Y210250D03*
X143250Y20250D03*
Y30250D03*
Y40250D03*
Y50250D03*
Y60250D03*
Y70250D03*
Y80250D03*
Y90250D03*
Y100250D03*
Y110250D03*
Y120250D03*
Y130250D03*
Y140250D03*
Y150250D03*
Y160250D03*
Y170250D03*
Y180250D03*
Y190250D03*
Y200250D03*
Y210250D03*
D02*
D20*
X28250Y55250D03*
Y95250D03*
X53250Y20250D03*
Y40250D03*
D02*
D21*
X63250Y50250D03*
Y60250D03*
Y70250D03*
Y80250D03*
Y90250D03*
Y100250D03*
Y110250D03*
Y120250D03*
Y130250D03*
Y140250D03*
Y150250D03*
Y160250D03*
Y170250D03*
Y180250D03*
Y190250D03*
Y200250D03*
Y210250D03*
X163250Y20250D03*
Y30250D03*
Y40250D03*
Y50250D03*
Y60250D03*
Y70250D03*
Y80250D03*
Y90250D03*
Y100250D03*
Y110250D03*
Y130250D03*
Y140250D03*
Y150250D03*
Y160250D03*
Y170250D03*
Y180250D03*
Y190250D03*
Y200250D03*
X178250Y210250D03*
X188250D03*
D02*
D28*
X28250Y20250D03*
Y40250D03*
Y110250D03*
Y130250D03*
X38250Y20250D03*
Y40250D03*
X0Y0D02*
M02*
