G04 EasyPC Gerber Version 20.0.2 Build 4112 *
G04 #@! TF.Part,Single*
G04 #@! TF.FileFunction,Copper,L2,Bot *
%FSLAX35Y35*%
%MOIN*%
G04 #@! TA.AperFunction,ComponentPad*
%ADD17R,0.06000X0.06000*%
%ADD13O,0.11000X0.06000*%
G04 #@! TD.AperFunction*
%ADD18C,0.01500*%
G04 #@! TA.AperFunction,ComponentPad*
%ADD16C,0.06000*%
%ADD26C,0.08661*%
X0Y0D02*
D02*
D13*
X83250Y20250D03*
Y30250D03*
Y40250D03*
Y50250D03*
Y60250D03*
Y70250D03*
Y80250D03*
Y90250D03*
Y100250D03*
Y110250D03*
Y120250D03*
Y130250D03*
Y140250D03*
Y150250D03*
Y160250D03*
Y170250D03*
Y180250D03*
Y190250D03*
Y200250D03*
Y210250D03*
X143250Y20250D03*
Y30250D03*
Y40250D03*
Y50250D03*
Y60250D03*
Y70250D03*
Y80250D03*
Y90250D03*
Y100250D03*
Y110250D03*
Y120250D03*
Y130250D03*
Y140250D03*
Y150250D03*
Y160250D03*
Y170250D03*
Y180250D03*
Y190250D03*
Y200250D03*
Y210250D03*
D02*
D16*
X28250Y55250D03*
Y95250D03*
X53250Y20250D03*
Y40250D03*
D02*
D17*
X63250Y50250D03*
Y60250D03*
Y70250D03*
Y80250D03*
Y90250D03*
Y100250D03*
Y110250D03*
Y120250D03*
Y130250D03*
Y140250D03*
Y150250D03*
Y160250D03*
Y170250D03*
Y180250D03*
Y190250D03*
Y200250D03*
Y210250D03*
X163250Y20250D03*
Y30250D03*
Y40250D03*
Y50250D03*
Y60250D03*
Y70250D03*
Y80250D03*
Y90250D03*
Y100250D03*
Y110250D03*
Y130250D03*
Y140250D03*
Y150250D03*
Y160250D03*
Y170250D03*
Y180250D03*
Y190250D03*
Y200250D03*
X178250Y210250D03*
X188250D03*
D02*
D18*
X28250Y20250D02*
Y10250D01*
X68250*
Y20250*
X83250*
X28250Y40250D02*
Y20250D01*
Y55250D02*
Y40250D01*
Y95250D02*
Y110250D01*
Y130250D02*
X63250D01*
X38250Y20250D02*
X53250D01*
X38250Y40250D02*
X53250D01*
Y20250D02*
X63250D01*
Y30250*
X83250*
X53250Y40250D02*
X83250D01*
X63250Y50250D02*
X83250D01*
X63250Y60250D02*
X83250D01*
X63250Y70250D02*
X83250D01*
X63250Y80250D02*
X83250D01*
X63250Y90250D02*
X83250D01*
X63250Y100250D02*
X83250D01*
X63250Y110250D02*
X83250D01*
X63250Y120250D02*
X83250D01*
X63250Y130250D02*
X83250D01*
X63250Y140250D02*
X83250D01*
X63250Y150250D02*
X83250D01*
X63250Y160250D02*
X83250D01*
X63250Y170250D02*
X83250D01*
X63250Y180250D02*
X83250D01*
X63250Y190250D02*
X83250D01*
X63250Y200250D02*
X83250D01*
X63250Y210250D02*
X83250D01*
Y20250D02*
Y10250D01*
X188250*
Y210250*
X143250Y20250D02*
X163250D01*
X143250Y30250D02*
X163250D01*
X143250Y40250D02*
X163250D01*
X143250Y50250D02*
X163250D01*
X143250Y60250D02*
X163250D01*
X143250Y70250D02*
X163250D01*
X143250Y80250D02*
X163250D01*
X143250Y90250D02*
X163250D01*
X143250Y100250D02*
X163250D01*
X143250Y110250D02*
X163250D01*
X143250Y120250D02*
X178250D01*
Y210250*
X143250Y130250D02*
X163250D01*
X143250Y140250D02*
X163250D01*
X143250Y150250D02*
X163250D01*
X143250Y160250D02*
X163250D01*
X143250Y170250D02*
X163250D01*
X143250Y180250D02*
X163250D01*
X143250Y190250D02*
X163250D01*
Y200250D02*
X143250D01*
X178250Y210250D02*
X143250D01*
D02*
D26*
X28250Y20250D03*
Y40250D03*
Y110250D03*
Y130250D03*
X38250Y20250D03*
Y40250D03*
X0Y0D02*
M02*
