G04 EasyPC Gerber Version 20.0.2 Build 4112 *
G04 #@! TF.Part,Single*
%FSLAX35Y35*%
%MOIN*%
%ADD10C,0.00500*%
G04 #@! TA.AperFunction,ComponentPad*
%ADD22C,0.10000*%
X0Y0D02*
D02*
D10*
X38250Y26187D02*
Y29937D01*
X41375*
X40750Y28063D02*
X38250D01*
Y46187D02*
Y49937D01*
X41375*
X40750Y48063D02*
X38250D01*
Y61187D02*
X39813Y64937D01*
X41375Y61187*
X38875Y62750D02*
X40750D01*
X38250Y101187D02*
X39813Y104937D01*
X41375Y101187*
X38875Y102750D02*
X40750D01*
X38250Y116187D02*
Y119937D01*
X41375*
X40750Y118063D02*
X38250D01*
Y136187D02*
Y139937D01*
X41375*
X40750Y138063D02*
X38250D01*
X48250Y26187D02*
Y29937D01*
X51375*
X50750Y28063D02*
X48250D01*
Y46187D02*
Y49937D01*
X51375*
X50750Y48063D02*
X48250D01*
X63250Y26187D02*
X64813Y29937D01*
X66375Y26187*
X63875Y27750D02*
X65750D01*
X63250Y46187D02*
X64813Y49937D01*
X66375Y46187*
X63875Y47750D02*
X65750D01*
X73250Y56187D02*
Y59937D01*
X75125*
X75750Y59625*
X76063Y59313*
X76375Y58687*
Y57437*
X76063Y56813*
X75750Y56500*
X75125Y56187*
X73250*
Y66187D02*
Y69937D01*
X75125*
X75750Y69625*
X76063Y69313*
X76375Y68687*
Y67437*
X76063Y66813*
X75750Y66500*
X75125Y66187*
X73250*
Y76187D02*
Y79937D01*
X75125*
X75750Y79625*
X76063Y79313*
X76375Y78687*
Y77437*
X76063Y76813*
X75750Y76500*
X75125Y76187*
X73250*
Y86187D02*
Y89937D01*
X75125*
X75750Y89625*
X76063Y89313*
X76375Y88687*
Y87437*
X76063Y86813*
X75750Y86500*
X75125Y86187*
X73250*
Y96187D02*
Y99937D01*
X75125*
X75750Y99625*
X76063Y99313*
X76375Y98687*
Y97437*
X76063Y96813*
X75750Y96500*
X75125Y96187*
X73250*
Y106187D02*
Y109937D01*
X75125*
X75750Y109625*
X76063Y109313*
X76375Y108687*
Y107437*
X76063Y106813*
X75750Y106500*
X75125Y106187*
X73250*
Y116187D02*
Y119937D01*
X75125*
X75750Y119625*
X76063Y119313*
X76375Y118687*
Y117437*
X76063Y116813*
X75750Y116500*
X75125Y116187*
X73250*
Y126187D02*
Y129937D01*
X75125*
X75750Y129625*
X76063Y129313*
X76375Y128687*
Y127437*
X76063Y126813*
X75750Y126500*
X75125Y126187*
X73250*
Y136187D02*
Y139937D01*
X75125*
X75750Y139625*
X76063Y139313*
X76375Y138687*
Y137437*
X76063Y136813*
X75750Y136500*
X75125Y136187*
X73250*
Y146187D02*
Y149937D01*
X75125*
X75750Y149625*
X76063Y149313*
X76375Y148687*
Y147437*
X76063Y146813*
X75750Y146500*
X75125Y146187*
X73250*
Y156187D02*
Y159937D01*
X75125*
X75750Y159625*
X76063Y159313*
X76375Y158687*
Y157437*
X76063Y156813*
X75750Y156500*
X75125Y156187*
X73250*
Y166187D02*
Y169937D01*
X75125*
X75750Y169625*
X76063Y169313*
X76375Y168687*
Y167437*
X76063Y166813*
X75750Y166500*
X75125Y166187*
X73250*
Y176187D02*
Y179937D01*
X75125*
X75750Y179625*
X76063Y179313*
X76375Y178687*
Y177437*
X76063Y176813*
X75750Y176500*
X75125Y176187*
X73250*
Y186187D02*
Y189937D01*
X75125*
X75750Y189625*
X76063Y189313*
X76375Y188687*
Y187437*
X76063Y186813*
X75750Y186500*
X75125Y186187*
X73250*
Y196187D02*
Y199937D01*
X75125*
X75750Y199625*
X76063Y199313*
X76375Y198687*
Y197437*
X76063Y196813*
X75750Y196500*
X75125Y196187*
X73250*
Y206187D02*
Y209937D01*
X75125*
X75750Y209625*
X76063Y209313*
X76375Y208687*
Y207437*
X76063Y206813*
X75750Y206500*
X75125Y206187*
X73250*
Y216187D02*
Y219937D01*
X75125*
X75750Y219625*
X76063Y219313*
X76375Y218687*
Y217437*
X76063Y216813*
X75750Y216500*
X75125Y216187*
X73250*
X93250Y26187D02*
X94813Y29937D01*
X96375Y26187*
X93875Y27750D02*
X95750D01*
X93250Y36187D02*
X94813Y39937D01*
X96375Y36187*
X93875Y37750D02*
X95750D01*
X93250Y46187D02*
X94813Y49937D01*
X96375Y46187*
X93875Y47750D02*
X95750D01*
X93250Y56187D02*
X94813Y59937D01*
X96375Y56187*
X93875Y57750D02*
X95750D01*
X93250Y66187D02*
X94813Y69937D01*
X96375Y66187*
X93875Y67750D02*
X95750D01*
X93250Y76187D02*
X94813Y79937D01*
X96375Y76187*
X93875Y77750D02*
X95750D01*
X93250Y86187D02*
X94813Y89937D01*
X96375Y86187*
X93875Y87750D02*
X95750D01*
X93250Y96187D02*
X94813Y99937D01*
X96375Y96187*
X93875Y97750D02*
X95750D01*
X93250Y106187D02*
X94813Y109937D01*
X96375Y106187*
X93875Y107750D02*
X95750D01*
X93250Y116187D02*
X94813Y119937D01*
X96375Y116187*
X93875Y117750D02*
X95750D01*
X93250Y126187D02*
X94813Y129937D01*
X96375Y126187*
X93875Y127750D02*
X95750D01*
X93250Y136187D02*
X94813Y139937D01*
X96375Y136187*
X93875Y137750D02*
X95750D01*
X93250Y146187D02*
X94813Y149937D01*
X96375Y146187*
X93875Y147750D02*
X95750D01*
X93250Y156187D02*
X94813Y159937D01*
X96375Y156187*
X93875Y157750D02*
X95750D01*
X93250Y166187D02*
X94813Y169937D01*
X96375Y166187*
X93875Y167750D02*
X95750D01*
X93250Y176187D02*
X94813Y179937D01*
X96375Y176187*
X93875Y177750D02*
X95750D01*
X93250Y186187D02*
X94813Y189937D01*
X96375Y186187*
X93875Y187750D02*
X95750D01*
X93250Y196187D02*
X94813Y199937D01*
X96375Y196187*
X93875Y197750D02*
X95750D01*
X93250Y206187D02*
X94813Y209937D01*
X96375Y206187*
X93875Y207750D02*
X95750D01*
X93250Y216187D02*
X94813Y219937D01*
X96375Y216187*
X93875Y217750D02*
X95750D01*
X153250Y26187D02*
X154813Y29937D01*
X156375Y26187*
X153875Y27750D02*
X155750D01*
X153250Y36187D02*
X154813Y39937D01*
X156375Y36187*
X153875Y37750D02*
X155750D01*
X153250Y46187D02*
X154813Y49937D01*
X156375Y46187*
X153875Y47750D02*
X155750D01*
X153250Y56187D02*
X154813Y59937D01*
X156375Y56187*
X153875Y57750D02*
X155750D01*
X153250Y66187D02*
X154813Y69937D01*
X156375Y66187*
X153875Y67750D02*
X155750D01*
X153250Y76187D02*
X154813Y79937D01*
X156375Y76187*
X153875Y77750D02*
X155750D01*
X153250Y86187D02*
X154813Y89937D01*
X156375Y86187*
X153875Y87750D02*
X155750D01*
X153250Y96187D02*
X154813Y99937D01*
X156375Y96187*
X153875Y97750D02*
X155750D01*
X153250Y106187D02*
X154813Y109937D01*
X156375Y106187*
X153875Y107750D02*
X155750D01*
X153250Y116187D02*
X154813Y119937D01*
X156375Y116187*
X153875Y117750D02*
X155750D01*
X153250Y126187D02*
X154813Y129937D01*
X156375Y126187*
X153875Y127750D02*
X155750D01*
X153250Y136187D02*
X154813Y139937D01*
X156375Y136187*
X153875Y137750D02*
X155750D01*
X153250Y146187D02*
X154813Y149937D01*
X156375Y146187*
X153875Y147750D02*
X155750D01*
X153250Y156187D02*
X154813Y159937D01*
X156375Y156187*
X153875Y157750D02*
X155750D01*
X153250Y166187D02*
X154813Y169937D01*
X156375Y166187*
X153875Y167750D02*
X155750D01*
X153250Y176187D02*
X154813Y179937D01*
X156375Y176187*
X153875Y177750D02*
X155750D01*
X153250Y186187D02*
X154813Y189937D01*
X156375Y186187*
X153875Y187750D02*
X155750D01*
X153250Y196187D02*
X154813Y199937D01*
X156375Y196187*
X153875Y197750D02*
X155750D01*
X153250Y206187D02*
X154813Y209937D01*
X156375Y206187*
X153875Y207750D02*
X155750D01*
X153250Y216187D02*
X154813Y219937D01*
X156375Y216187*
X153875Y217750D02*
X155750D01*
X173250Y26187D02*
Y29937D01*
X175125*
X175750Y29625*
X176063Y29313*
X176375Y28687*
Y27437*
X176063Y26813*
X175750Y26500*
X175125Y26187*
X173250*
Y36187D02*
Y39937D01*
X175125*
X175750Y39625*
X176063Y39313*
X176375Y38687*
Y37437*
X176063Y36813*
X175750Y36500*
X175125Y36187*
X173250*
Y46187D02*
Y49937D01*
X175125*
X175750Y49625*
X176063Y49313*
X176375Y48687*
Y47437*
X176063Y46813*
X175750Y46500*
X175125Y46187*
X173250*
Y56187D02*
Y59937D01*
X175125*
X175750Y59625*
X176063Y59313*
X176375Y58687*
Y57437*
X176063Y56813*
X175750Y56500*
X175125Y56187*
X173250*
Y66187D02*
Y69937D01*
X175125*
X175750Y69625*
X176063Y69313*
X176375Y68687*
Y67437*
X176063Y66813*
X175750Y66500*
X175125Y66187*
X173250*
Y76187D02*
Y79937D01*
X175125*
X175750Y79625*
X176063Y79313*
X176375Y78687*
Y77437*
X176063Y76813*
X175750Y76500*
X175125Y76187*
X173250*
Y86187D02*
Y89937D01*
X175125*
X175750Y89625*
X176063Y89313*
X176375Y88687*
Y87437*
X176063Y86813*
X175750Y86500*
X175125Y86187*
X173250*
Y96187D02*
Y99937D01*
X175125*
X175750Y99625*
X176063Y99313*
X176375Y98687*
Y97437*
X176063Y96813*
X175750Y96500*
X175125Y96187*
X173250*
Y106187D02*
Y109937D01*
X175125*
X175750Y109625*
X176063Y109313*
X176375Y108687*
Y107437*
X176063Y106813*
X175750Y106500*
X175125Y106187*
X173250*
Y116187D02*
Y119937D01*
X175125*
X175750Y119625*
X176063Y119313*
X176375Y118687*
Y117437*
X176063Y116813*
X175750Y116500*
X175125Y116187*
X173250*
Y136187D02*
Y139937D01*
X175125*
X175750Y139625*
X176063Y139313*
X176375Y138687*
Y137437*
X176063Y136813*
X175750Y136500*
X175125Y136187*
X173250*
Y146187D02*
Y149937D01*
X175125*
X175750Y149625*
X176063Y149313*
X176375Y148687*
Y147437*
X176063Y146813*
X175750Y146500*
X175125Y146187*
X173250*
Y156187D02*
Y159937D01*
X175125*
X175750Y159625*
X176063Y159313*
X176375Y158687*
Y157437*
X176063Y156813*
X175750Y156500*
X175125Y156187*
X173250*
Y166187D02*
Y169937D01*
X175125*
X175750Y169625*
X176063Y169313*
X176375Y168687*
Y167437*
X176063Y166813*
X175750Y166500*
X175125Y166187*
X173250*
Y176187D02*
Y179937D01*
X175125*
X175750Y179625*
X176063Y179313*
X176375Y178687*
Y177437*
X176063Y176813*
X175750Y176500*
X175125Y176187*
X173250*
Y186187D02*
Y189937D01*
X175125*
X175750Y189625*
X176063Y189313*
X176375Y188687*
Y187437*
X176063Y186813*
X175750Y186500*
X175125Y186187*
X173250*
Y196187D02*
Y199937D01*
X175125*
X175750Y199625*
X176063Y199313*
X176375Y198687*
Y197437*
X176063Y196813*
X175750Y196500*
X175125Y196187*
X173250*
Y206187D02*
Y209937D01*
X175125*
X175750Y209625*
X176063Y209313*
X176375Y208687*
Y207437*
X176063Y206813*
X175750Y206500*
X175125Y206187*
X173250*
X188250Y216187D02*
Y219937D01*
X190125*
X190750Y219625*
X191063Y219313*
X191375Y218687*
Y217437*
X191063Y216813*
X190750Y216500*
X190125Y216187*
X188250*
X198250D02*
Y219937D01*
X200125*
X200750Y219625*
X201063Y219313*
X201375Y218687*
Y217437*
X201063Y216813*
X200750Y216500*
X200125Y216187*
X198250*
D02*
D22*
X28250Y20250D03*
Y40250D03*
Y55250D03*
Y95250D03*
Y110250D03*
Y130250D03*
X38250Y20250D03*
Y40250D03*
X53250Y20250D03*
Y40250D03*
X63250Y50250D03*
Y60250D03*
Y70250D03*
Y80250D03*
Y90250D03*
Y100250D03*
Y110250D03*
Y120250D03*
Y130250D03*
Y140250D03*
Y150250D03*
Y160250D03*
Y170250D03*
Y180250D03*
Y190250D03*
Y200250D03*
Y210250D03*
X83250Y20250D03*
Y30250D03*
Y40250D03*
Y50250D03*
Y60250D03*
Y70250D03*
Y80250D03*
Y90250D03*
Y100250D03*
Y110250D03*
Y120250D03*
Y130250D03*
Y140250D03*
Y150250D03*
Y160250D03*
Y170250D03*
Y180250D03*
Y190250D03*
Y200250D03*
Y210250D03*
X143250Y20250D03*
Y30250D03*
Y40250D03*
Y50250D03*
Y60250D03*
Y70250D03*
Y80250D03*
Y90250D03*
Y100250D03*
Y110250D03*
Y120250D03*
Y130250D03*
Y140250D03*
Y150250D03*
Y160250D03*
Y170250D03*
Y180250D03*
Y190250D03*
Y200250D03*
Y210250D03*
X163250Y20250D03*
Y30250D03*
Y40250D03*
Y50250D03*
Y60250D03*
Y70250D03*
Y80250D03*
Y90250D03*
Y100250D03*
Y110250D03*
Y130250D03*
Y140250D03*
Y150250D03*
Y160250D03*
Y170250D03*
Y180250D03*
Y190250D03*
Y200250D03*
X178250Y210250D03*
X188250D03*
X0Y0D02*
M02*
